<svg width="50" height="35" viewBox="0 0 50 35" fill="none" xmlns="http://www.w3.org/2000/svg">
<path d="M48.3366 5.41887C48.0628 4.37806 47.523 3.42804 46.771 2.66388C46.019 1.89972 45.0812 1.34822 44.0516 1.06457C40.2666 0.0355229 25.1006 0.0355225 25.1006 0.0355225C25.1006 0.0355225 9.93456 0.0355229 6.15156 1.06457C5.12136 1.34775 4.18298 1.89905 3.43043 2.66324C2.67787 3.42744 2.13754 4.3777 1.86356 5.41887C0.851563 9.25864 0.851562 17.2721 0.851562 17.2721C0.851562 17.2721 0.851562 25.2846 1.86556 29.1254C2.13952 30.1661 2.67961 31.116 3.43179 31.88C4.18397 32.644 5.12185 33.1953 6.15156 33.4787C9.93356 34.5077 25.0996 34.5077 25.0996 34.5077C25.0996 34.5077 40.2656 34.5077 44.0476 33.4787C45.0778 33.1955 46.0161 32.6442 46.7687 31.88C47.5213 31.1158 48.0616 30.1655 48.3356 29.1244C49.3516 25.2846 49.3516 17.2721 49.3516 17.2721C49.3516 17.2721 49.3516 9.25864 48.3366 5.41887ZM20.1406 24.5511V9.99714L32.8166 17.2721L20.1406 24.5511Z" fill="white"/>
</svg>
