<svg width="43" height="44" viewBox="0 0 43 44" fill="none" xmlns="http://www.w3.org/2000/svg">
<path d="M43.0001 21.825C43.0176 16.0544 40.7623 10.5132 36.7303 6.42028C32.6983 2.32733 27.2199 0.0178996 21.5001 0C15.7803 0.0178996 10.3019 2.32733 6.26988 6.42028C2.23787 10.5132 -0.0174299 16.0544 0.000101449 21.825C-0.0107792 27.0075 1.80948 32.0243 5.1342 35.975C8.45892 39.9257 13.0704 42.5516 18.1411 43.3816V28.1334H12.6821V21.825H18.1411V17.0167C18.1411 11.5466 21.3511 8.52599 26.2621 8.52599C27.8746 8.54861 29.4833 8.6909 31.0751 8.95174V14.326H28.3641C25.6931 14.326 24.8641 16.0088 24.8641 17.734V21.828H30.8271L29.8741 28.1365H24.8641V43.3816C29.9339 42.5506 34.5442 39.9241 37.8679 35.9736C41.1916 32.023 43.0112 27.0068 43.0001 21.825Z" fill="white"/>
</svg>
