<svg width="42" height="44" viewBox="0 0 42 44" fill="none" xmlns="http://www.w3.org/2000/svg">
<path d="M21.0631 3.96386C26.6531 3.96386 27.3151 3.98707 29.5231 4.09199C30.8534 4.10897 32.17 4.3652 33.4111 4.84865C34.327 5.20582 35.1505 5.76851 35.8191 6.49412C36.5193 7.21097 37.054 8.07495 37.3851 9.02437C37.8472 10.3366 38.0908 11.7169 38.1061 13.1093C38.2061 15.4297 38.2281 16.1248 38.2281 21.9995C38.2281 27.8742 38.2061 28.5693 38.1061 30.8897C38.0908 32.2821 37.8472 33.6624 37.3851 34.9746C37.0533 35.9237 36.5187 36.7875 35.8191 37.5049C35.1509 38.231 34.3274 38.7938 33.4111 39.1503C32.17 39.6338 30.8534 39.89 29.5231 39.907C27.3161 40.0079 26.6531 40.0351 21.0631 40.0351C15.4731 40.0351 14.8101 40.0129 12.6031 39.907C11.2728 39.89 9.95617 39.6338 8.71508 39.1503C7.79911 38.7932 6.97568 38.2305 6.30708 37.5049C5.60684 36.788 5.07212 35.924 4.74108 34.9746C4.279 33.6624 4.03537 32.2821 4.02008 30.8897C3.92008 28.5693 3.89808 27.8742 3.89808 21.9995C3.89808 16.1248 3.92008 15.4297 4.02008 13.1093C4.03537 11.7169 4.279 10.3366 4.74108 9.02437C5.0731 8.07519 5.60808 7.21135 6.30808 6.49412C6.97604 5.76846 7.79924 5.20604 8.71508 4.84966C9.95617 4.36621 11.2728 4.10997 12.6031 4.093C14.8111 3.99211 15.4731 3.96487 21.0631 3.96487V3.96386ZM21.0631 0.00100887C15.3771 0.00100887 14.6631 0.0262307 12.4311 0.13418C10.6908 0.170852 8.97052 0.516457 7.34908 1.15516C5.94219 1.71414 4.67576 2.58109 3.64108 3.69349C2.56962 4.80285 1.74644 6.13114 1.22708 7.58875C0.616619 9.30339 0.287956 11.1071 0.254075 12.9287C0.151075 15.2754 0.127075 16.0249 0.127075 21.9995C0.127075 27.974 0.151075 28.7236 0.253075 31.0733C0.287603 32.8939 0.616599 34.6966 1.22708 36.4102C1.74655 37.8683 2.57009 39.197 3.64208 40.3065C4.67701 41.4184 5.94339 42.2849 7.35008 42.8438C8.9698 43.4827 10.6884 43.829 12.4271 43.8668C14.6601 43.9738 15.3731 44 21.0591 44C26.7451 44 27.4591 43.9748 29.6911 43.8668C31.4315 43.8296 33.1518 43.4833 34.7731 42.8438C36.1799 42.2851 37.4463 41.4186 38.4811 40.3065C39.5529 39.1969 40.3764 37.8682 40.8961 36.4102C41.5066 34.6956 41.8353 32.8919 41.8691 31.0703C41.9691 28.7236 41.9951 27.974 41.9951 21.9995C41.9951 16.0249 41.9711 15.2754 41.8691 12.9287C41.8353 11.1071 41.5066 9.30337 40.8961 7.58875C40.3781 6.13111 39.5563 4.80248 38.4861 3.69248C37.4511 2.58062 36.1848 1.71406 34.7781 1.15516C33.1562 0.516664 31.4357 0.170738 29.6951 0.133171C27.4621 0.0252218 26.7491 0 21.0631 0V0.00100887Z" fill="white"/>
<path d="M21.0636 10.2755C15.1256 10.2755 10.3126 15.5216 10.3126 21.9996C10.3126 28.4775 15.1256 33.7237 21.0636 33.7237C27.0016 33.7237 31.8136 28.4775 31.8136 21.9996C31.8136 15.5216 27.0006 10.2755 21.0636 10.2755ZM21.0636 29.6095C19.5467 29.7288 18.0294 29.3839 16.7098 28.6199C15.3902 27.8559 14.3295 26.7082 13.6663 25.3268C13.0031 23.9453 12.7681 22.3941 12.992 20.8759C13.216 19.3576 13.8885 17.9427 14.9217 16.8159C15.9549 15.6892 17.3008 14.9028 18.7838 14.5596C20.2668 14.2164 21.8179 14.3322 23.2346 14.8919C24.6513 15.4517 25.8679 16.4293 26.7254 17.6973C27.5829 18.9652 28.0416 20.4646 28.0416 21.9996C28.1136 23.9415 27.4195 25.833 26.1115 27.2594C24.8035 28.6859 22.9882 29.531 21.0636 29.6095Z" fill="white"/>
<path d="M32.2387 12.7257C33.626 12.7257 34.7507 11.5911 34.7507 10.1915C34.7507 8.79181 33.626 7.65717 32.2387 7.65717C30.8513 7.65717 29.7267 8.79181 29.7267 10.1915C29.7267 11.5911 30.8513 12.7257 32.2387 12.7257Z" fill="white"/>
</svg>
