<svg width="46" height="37" viewBox="0 0 46 37" fill="none" xmlns="http://www.w3.org/2000/svg">
<path d="M14.4577 36.9331C31.4427 36.9331 40.7327 22.7362 40.7327 10.4249C40.7327 10.0214 40.7237 9.61982 40.7057 9.22031C42.513 7.90067 44.073 6.26705 45.3127 4.39587C43.6286 5.14886 41.8421 5.64297 40.0127 5.86177C41.9392 4.69677 43.3806 2.86542 44.0687 0.708439C42.2556 1.79443 40.2716 2.55943 38.2027 2.97033C36.8107 1.47632 34.9693 0.486917 32.9636 0.155293C30.9579 -0.17633 28.8998 0.168319 27.1078 1.13589C25.3159 2.10346 23.89 3.63998 23.051 5.50761C22.2121 7.37524 22.0067 9.4698 22.4667 11.4671C18.7954 11.2816 15.2038 10.3192 11.9251 8.64227C8.64645 6.96536 5.75404 4.61147 3.43573 1.73345C2.25439 3.78408 1.89225 6.21189 2.42305 8.52246C2.95386 10.833 4.33769 12.8526 6.29273 14.1698C4.82627 14.1246 3.39203 13.7246 2.11073 13.0036C2.11073 13.0419 2.11073 13.0813 2.11073 13.1216C2.11127 15.2726 2.84935 17.3572 4.19978 19.0218C5.55021 20.6863 7.42981 21.8283 9.51973 22.2539C8.72634 22.4712 7.90784 22.5811 7.08573 22.5808C6.50308 22.5804 5.92179 22.524 5.34973 22.4123C5.93934 24.2633 7.08774 25.8819 8.63425 27.0418C10.1808 28.2017 12.048 28.8449 13.9747 28.8812C10.7031 31.4727 6.66227 32.8782 2.50273 32.8713C1.76754 32.8714 1.03297 32.8282 0.302734 32.7422C4.52345 35.4833 9.43812 36.9384 14.4577 36.9331Z" fill="white"/>
</svg>
